<?xml version="1.0" encoding="iso-8859-1"?>
<!-- Generator: Adobe Illustrator 19.0.0, SVG Export Plug-In . SVG Version: 6.00 Build 0)  -->
<svg version="1.1" id="Capa_1" xmlns="http://www.w3.org/2000/svg" xmlns:xlink="http://www.w3.org/1999/xlink" x="0px" y="0px"
	 viewBox="0 0 496 496" style="enable-background:new 0 0 496 496;" xml:space="preserve">
<g>
	<g>
		<g>
			<path d="M472,56h-24V40c0-22.056-17.944-40-40-40H232c-22.056,0-40,17.944-40,40v48c0,22.056,17.944,40,40,40h176
				c22.056,0,40-17.944,40-40V72h24c4.416,0,8,3.584,8,8v82.448c0,3.928-2.816,7.248-6.68,7.888L308.056,197.88
				C296.44,199.816,288,209.768,288,221.552V256c-13.232,0-24,10.768-24,24v96c0,13.232,10.768,24,24,24h16
				c13.232,0,24-10.768,24-24v-96c0-13.232-10.768-24-24-24v-34.448c0-3.928,2.816-7.248,6.68-7.888l165.264-27.544
				C487.56,184.184,496,174.232,496,162.448V80C496,66.768,485.232,56,472,56z M432,88c0,13.232-10.768,24-24,24H232
				c-13.232,0-24-10.768-24-24V40c0-13.232,10.768-24,24-24h176c13.232,0,24,10.768,24,24V88z M312,376c0,4.416-3.584,8-8,8h-16
				c-4.416,0-8-3.584-8-8v-72h32V376z M312,280v8h-32v-8c0-4.416,3.584-8,8-8h16C308.416,272,312,275.584,312,280z"/>
			<path d="M128,112C57.424,112,0,169.424,0,240v32v8v8c0,8.824,7.176,16,16,16h0.032v0.696l13.464,154.776
				C31.304,480.296,48.432,496,69.336,496h117.328c20.904,0,38.032-15.704,39.84-36.528L240,304c8.824,0,16-7.176,16-16v-8v-8v-32
				C256,169.424,198.576,112,128,112z M240,280v8h-32v16h15.968l-13.4,154.08C209.488,470.576,199.2,480,186.664,480H69.336
				c-12.536,0-22.824-9.424-23.904-21.92L32,304h160v-16H16v-8v-8h224V280z M240,256H16v-16c0-61.76,50.24-112,112-112
				s112,50.24,112,112V256z"/>
			<path d="M146.504,348.208C143.336,340.792,136.072,336,128,336s-15.336,4.792-18.496,12.2l-18.272,42.616
				C89.088,395.832,88,401.136,88,406.568V408c0,22.056,17.944,40,40,40c22.056,0,40-17.944,40-40v-1.432
				c0-5.44-1.088-10.744-3.232-15.76L146.504,348.208z M152,408c0,13.232-10.768,24-24,24s-24-10.768-24-24v-1.432
				c0-3.264,0.656-6.456,1.936-9.464l18.272-42.616c0.648-1.512,2.136-2.488,3.792-2.488s3.144,0.976,3.8,2.496l18.256,42.6
				c1.288,3.024,1.944,6.208,1.944,9.472V408z"/>
			<rect x="224" y="80" width="16" height="16"/>
			<rect x="256" y="80" width="160" height="16"/>
		</g>
	</g>
</g>
<g>
</g>
<g>
</g>
<g>
</g>
<g>
</g>
<g>
</g>
<g>
</g>
<g>
</g>
<g>
</g>
<g>
</g>
<g>
</g>
<g>
</g>
<g>
</g>
<g>
</g>
<g>
</g>
<g>
</g>
</svg>
