<?xml version="1.0" encoding="iso-8859-1"?>
<!-- Generator: Adobe Illustrator 19.0.0, SVG Export Plug-In . SVG Version: 6.00 Build 0)  -->
<svg version="1.1" id="Capa_1" xmlns="http://www.w3.org/2000/svg" xmlns:xlink="http://www.w3.org/1999/xlink" x="0px" y="0px"
	 viewBox="0 0 496.944 496.944" style="enable-background:new 0 0 496.944 496.944;" xml:space="preserve">
<g>
	<g>
		<g>
			<path d="M448.472,100V0.944h-112V44l-88-44l-248,124v73.888l16-8v251.056h99.792l30.392,30.392l20.624-20.624
				c12.944,7.656,26.752,13.4,41.192,17.128v29.104h80v-29.112c14.448-3.728,28.248-9.472,41.192-17.128l20.624,20.624
				l30.392-30.384h99.792V189.888l16,8V124L448.472,100z M352.472,16.944h80v16h-80V16.944z M352.472,48.944h80V92l-80-40V48.944z
				 M350.304,448.712l-18.368-18.376l-5.432,3.512c-14.72,9.52-30.776,16.192-47.712,19.832l-6.32,1.36v25.904h-48V455.04
				l-6.32-1.352c-16.936-3.64-32.992-10.312-47.712-19.832l-5.432-3.512l-18.36,18.376l-33.944-33.944l18.376-18.36l-3.512-5.432
				c-9.52-14.72-16.192-30.776-19.832-47.712l-1.36-6.328H80.472v-48h25.904l1.352-6.32c3.64-16.936,10.312-32.992,19.832-47.712
				l3.512-5.432l-18.376-18.36l33.944-33.944L165,195.552l5.432-3.512c14.72-9.52,30.776-16.192,47.712-19.832l6.328-1.36v-25.904
				h48v25.904l6.32,1.352c16.936,3.64,32.992,10.312,47.712,19.832l5.432,3.512l18.36-18.376l33.944,33.944l-18.376,18.36
				l3.512,5.432c9.52,14.72,16.192,30.776,19.832,47.712l1.36,6.328h25.904v48h-25.904l-1.352,6.32
				c-3.64,16.936-10.312,32.992-19.832,47.712l-3.512,5.432l18.376,18.36L350.304,448.712z M480.472,172l-28.424-14.208
				l-7.16,14.312l19.584,9.784v243.056H396.68l10.176-10.176l-20.624-20.624c7.656-12.944,13.4-26.752,17.128-41.192h29.112v-80.008
				H403.36c-3.728-14.448-9.472-28.248-17.128-41.192l20.624-20.624l-56.568-56.568l-20.624,20.624
				c-12.944-7.656-26.752-13.4-41.192-17.128v-29.112h-80v29.112c-14.448,3.728-28.248,9.472-41.192,17.128l-20.624-20.624
				l-56.568,56.568l20.624,20.624c-7.656,12.944-13.4,26.752-17.128,41.192H64.472v80h29.112
				c3.728,14.448,9.472,28.248,17.128,41.192L90.088,414.76l10.176,10.184H32.472V181.888l216-108l180.392,90.192l7.16-14.312
				L248.472,56l-232,116v-38.112l232-116l232,116V172z"/>
			<path d="M248.472,224.944c-48.52,0-88,39.48-88,88c0,48.52,39.48,88,88,88s88-39.48,88-88
				C336.472,264.424,296.992,224.944,248.472,224.944z M248.472,384.944c-39.704,0-72-32.296-72-72c0-39.704,32.296-72,72-72
				s72,32.296,72,72C320.472,352.648,288.176,384.944,248.472,384.944z"/>
			<path d="M248.472,200.944v-16c-57.408,0-108.152,38.6-123.4,93.872l15.424,4.248C153.84,234.72,198.24,200.944,248.472,200.944z"
				/>
			<path d="M120.472,312.944h16c0-5,0.328-10.024,0.984-14.944l-15.856-2.112C120.848,301.504,120.472,307.24,120.472,312.944z"/>
		</g>
	</g>
</g>
<g>
</g>
<g>
</g>
<g>
</g>
<g>
</g>
<g>
</g>
<g>
</g>
<g>
</g>
<g>
</g>
<g>
</g>
<g>
</g>
<g>
</g>
<g>
</g>
<g>
</g>
<g>
</g>
<g>
</g>
</svg>
