<?xml version="1.0" encoding="iso-8859-1"?>
<!-- Generator: Adobe Illustrator 19.0.0, SVG Export Plug-In . SVG Version: 6.00 Build 0)  -->
<svg version="1.1" id="Capa_1" xmlns="http://www.w3.org/2000/svg" xmlns:xlink="http://www.w3.org/1999/xlink" x="0px" y="0px"
	 viewBox="0 0 496 496" style="enable-background:new 0 0 496 496;" xml:space="preserve">
<g>
	<g>
		<path d="M0,0v416h112.152v56c0,13.232,10.768,24,24,24h32c13.232,0,24-10.768,24-24v-56H496V0H0z M368,175.992v64h-72.624V240
			c-1.328-8.512-5.032-17.056-11.976-24.744l-4.04-4.408c-6.832-7.4-13.288-14.384-15.616-21.384
			c-1.392-4.168-0.992-8.648,0.272-13.472H368z M320,160V96h104v64H320z M424,256v64H320v-64H424z M304,160h-34.224
			c5.616-14.28,11.488-31.664,1.528-51.576c-2.664-5.328-6.488-9.312-10.976-12.424H304V160z M253.848,156.784
			c-4.784,12.024-9.728,24.448-5.296,37.752c3.424,10.256,11.008,18.48,19.04,27.168l3.928,4.288
			c12.536,13.872,9.272,30.496,2.664,40.512c-6.368,9.672-18.976,18.032-35.176,12.472c-0.72-0.248-1.4-0.624-2.104-0.92
			c2.072-4.968,3.232-10.408,3.232-16.112c0.016-4.872-0.824-9.664-2.472-14.248L187.72,108.96
			c21.512-5.6,60.224-11.472,69.272,6.624C264.368,130.344,259.264,143.184,253.848,156.784z M152.152,192
			c-13.232,0-24,10.768-24,24v72h-21.944c-14.368,0-26.056-11.688-26.056-26.056c0-3.016,0.52-5.984,1.544-8.832l67.28-186.88
			c0.96-2.672,5.4-2.672,6.36,0l67.28,186.88c1.016,2.832,1.536,5.808,1.536,8.832c0,14.368-11.688,26.056-26.056,26.056h-21.944
			v-72C176.152,202.768,165.384,192,152.152,192z M144.152,216c0-4.416,3.592-8,8-8c4.408,0,8,3.584,8,8v48H160v56h-15.848
			L144.152,216L144.152,216z M66.12,169.848c-4.904-5.824-9.968-11.856-9.968-25.848c0-16.096,34.136-22.528,56.368-23.76
			L66.64,247.696c-1.144,3.184-1.752,6.488-2.104,9.824c-7.648-5.944-16.384-15.032-16.384-25.52
			c0-11.416,4.064-15.096,10.216-20.664c4.336-3.936,9.256-8.392,12.944-15.76C77.432,183.328,70.896,175.536,66.12,169.848z
			 M128,16h112v64h-62.704l-6.904-19.184C167.632,53.152,160.304,48,152.152,48c-8.152,0-15.48,5.152-18.24,12.816L128,77.24V16z
			 M118.36,104.016c-8.064,0.112-34.408,1.2-54.36,9.968V96h57.248L118.36,104.016z M16,16h96v64H16V16z M16,96h32v28.736
			c-4.792,5.088-7.848,11.368-7.848,19.264c0,6.304,0.888,11.504,2.208,16H16V96z M16,176h34.528
			c1.16,1.512,2.296,2.912,3.328,4.144c4.56,5.432,4.48,5.592,3.136,8.28c-2.336,4.68-5.6,7.632-9.368,11.056
			c-6.896,6.24-15.472,14.016-15.472,32.52c0,5.808,1.48,11.136,3.784,16H16V176z M16,264h31.696c0.104,0.096,0.2,0.192,0.304,0.288
			V320H16V264z M112.152,344v56H16v-64h97.624C112.728,338.512,112.152,341.184,112.152,344z M64,320v-43.424
			c1.608,0.976,2.88,1.688,3.672,2.104C74.16,293.56,88.968,304,106.208,304h21.944v16H64z M176.152,472c0,4.416-3.592,8-8,8h-32
			c-4.408,0-8-3.584-8-8V344c0-4.416,3.592-8,8-8h32c4.408,0,8,3.584,8,8V472z M176.152,320v-16h21.944
			c11.656,0,22.2-4.776,29.824-12.456c1.944,0.952,3.896,1.88,5.92,2.576c5.144,1.76,10.312,2.608,15.376,2.608
			c15.12,0,29.24-7.608,38.336-21.416c3.664-5.568,6.36-12.208,7.616-19.312H304v64H176.152z M368,400H256v-32h-16v32h-47.848v-56
			c0-2.816-0.584-5.488-1.48-8H240v16h16v-16h112V400z M480,400h-96v-64h96V400z M480,320h-40v-64h40V320z M480,240h-96v-64h96V240z
			 M480,160h-40V96h40V160z M480,80h-96V48h-16v32H256V16h112v16h16V16h96V80z"/>
	</g>
</g>
<g>
</g>
<g>
</g>
<g>
</g>
<g>
</g>
<g>
</g>
<g>
</g>
<g>
</g>
<g>
</g>
<g>
</g>
<g>
</g>
<g>
</g>
<g>
</g>
<g>
</g>
<g>
</g>
<g>
</g>
</svg>
