<?xml version="1.0" encoding="iso-8859-1"?>
<!-- Generator: Adobe Illustrator 19.0.0, SVG Export Plug-In . SVG Version: 6.00 Build 0)  -->
<svg version="1.1" id="Capa_1" xmlns="http://www.w3.org/2000/svg" xmlns:xlink="http://www.w3.org/1999/xlink" x="0px" y="0px"
	 viewBox="0 0 496 496" style="enable-background:new 0 0 496 496;" xml:space="preserve">
<g>
	<g>
		<path d="M496,0H0v400h270.544l-12.968,48.984C247.472,451.808,240,461,240,472v24h256v-24c0-11-7.472-20.192-17.584-23.016
			L465.456,400H496V0z M472,464c4.408,0,8,3.584,8,8v8H256v-8c0-4.416,3.592-8,8-8H472z M309.56,346.312l-9.2,3.624l11.464-43.32
			l101.752-40.08l9.296,35.136l-99.248,39.096l5.864,14.888l97.504-38.408l9.296,35.136L283.8,412.456l11.472-43.32l20.152-7.936
			L309.56,346.312z M240,144v48h-48v48c-26.472,0-48-21.528-48-48h-16c0,35.288,28.712,64,64,64v24h16v-72h32v128H64V208h48v-16H64
			v-72h64c32.576,0,59.488-24.48,63.448-56H240v40h16V64h176v128h-21.608l-4.232-16h-76.32l-4.232,16H256v-48H240z M64,104V64
			h111.28c-3.824,22.664-23.536,40-47.28,40H64z M396.032,200.24l-62.576,24.648L342.16,192h51.688L396.032,200.24z
			 M328.368,244.096l71.784-28.28l9.296,35.136l-92.544,36.456L328.368,244.096z M440.416,367.952l9.296,35.136l-16.64,6.552
			l5.872,14.888l14.896-5.872L461.608,448h-82.232l44.168-17.4l-5.864-14.888L335.704,448h-61.312l4.328-16.352L440.416,367.952z
			 M480,384h-18.784l-46.592-176H448V48H48v304h208V208h65.376l-46.592,176H16V16h464V384z"/>
	</g>
</g>
<g>
</g>
<g>
</g>
<g>
</g>
<g>
</g>
<g>
</g>
<g>
</g>
<g>
</g>
<g>
</g>
<g>
</g>
<g>
</g>
<g>
</g>
<g>
</g>
<g>
</g>
<g>
</g>
<g>
</g>
</svg>
