<?xml version="1.0" encoding="iso-8859-1"?>
<!-- Generator: Adobe Illustrator 19.0.0, SVG Export Plug-In . SVG Version: 6.00 Build 0)  -->
<svg version="1.1" id="Capa_1" xmlns="http://www.w3.org/2000/svg" xmlns:xlink="http://www.w3.org/1999/xlink" x="0px" y="0px"
	 viewBox="0 0 496 496" style="enable-background:new 0 0 496 496;" xml:space="preserve">
<g>
	<g>
		<g>
			<path d="M344,400c-13.232,0-24,10.768-24,24s10.768,24,24,24s24-10.768,24-24S357.232,400,344,400z M344,432
				c-4.416,0-8-3.584-8-8c0-4.416,3.584-8,8-8c4.416,0,8,3.584,8,8C352,428.416,348.416,432,344,432z"/>
			<path d="M437.472,88H384V40h-48v22.88L318.032,0H145.968L128,62.88V40H80v176H48v-32H24c-13.232,0-24,10.768-24,24v72
				c0,13.232,10.768,24,24,24h24v-32h32v92.176C60.72,377.104,48,399.088,48,424c0,39.704,32.296,72,72,72s72-32.296,72-72
				c0-18.448-7.032-35.248-18.488-48H290.48C279.032,388.752,272,405.552,272,424c0,39.704,32.296,72,72,72
				c39.704,0,72-32.296,72-72c0-18.448-7.032-35.248-18.488-48h56.248L496,249.296v-10.8L437.472,88z M32,288h-8
				c-4.416,0-8-3.584-8-8v-72c0-4.416,3.584-8,8-8h8V288z M158.032,16h147.936l20.568,72H137.464L158.032,16z M128,104h208v31.824
				h-0.024c0,0.064-0.008,0.12-0.016,0.176H312v16h22.056c-8.552,40.912-45.176,72-88.296,72h-27.52
				c-43.512,0-79.928-30.96-88.384-72H296v-16H128.112c-0.016-0.752-0.112-1.488-0.112-2.24V104z M304,232v8h-40v-1.696
				c30.24-5.352,56.256-23.68,72-49.016V232H304z M336,248v32h-16v-32H336z M304,256v16h-40v-16H304z M248,248v32h-32v-32H248z
				 M128,189.552c15.688,25.28,41.616,43.48,72,48.768V240h-40v-8h-32V189.552z M200,256v16h-40v-16H200z M128,248h16v32h-16V248z
				 M128,296h32v-8h40v8h64v-8h40v8h32v32H128V296z M48,256v-24h32v24H48z M176,424c0,30.872-25.128,56-56,56s-56-25.128-56-56
				s25.128-56,56-56S176,393.128,176,424z M152.84,360c-9.856-5.08-21-8-32.84-8c-8.424,0-16.48,1.528-24,4.2V56h16v48v32v208h240
				V136v-32V56h16v300.2c-7.52-2.672-15.576-4.2-24-4.2c-11.832,0-22.976,2.92-32.84,8H152.84z M400,424c0,30.872-25.128,56-56,56
				s-56-25.128-56-56s25.128-56,56-56S400,393.128,400,424z M400,360h-16V104h16V360z M442.24,360H416v-32h36.904L442.24,360z
				 M458.232,312H416v-16h47.568L458.232,312z M468.896,280H416v-16h58.232L468.896,280z M480,246.704L479.568,248H416V104h10.528
				L480,241.504V246.704z"/>
			<path d="M120,400c-13.232,0-24,10.768-24,24s10.768,24,24,24s24-10.768,24-24S133.232,400,120,400z M120,432
				c-4.416,0-8-3.584-8-8c0-4.416,3.584-8,8-8s8,3.584,8,8C128,428.416,124.416,432,120,432z"/>
		</g>
	</g>
</g>
<g>
</g>
<g>
</g>
<g>
</g>
<g>
</g>
<g>
</g>
<g>
</g>
<g>
</g>
<g>
</g>
<g>
</g>
<g>
</g>
<g>
</g>
<g>
</g>
<g>
</g>
<g>
</g>
<g>
</g>
</svg>
