<?xml version="1.0" encoding="iso-8859-1"?>
<!-- Generator: Adobe Illustrator 19.0.0, SVG Export Plug-In . SVG Version: 6.00 Build 0)  -->
<svg version="1.1" id="Capa_1" xmlns="http://www.w3.org/2000/svg" xmlns:xlink="http://www.w3.org/1999/xlink" x="0px" y="0px"
	 viewBox="0 0 496 496" style="enable-background:new 0 0 496 496;" xml:space="preserve">
<g>
	<g>
		<g>
			<path d="M208,72h-16V40h-21.88L112,6.792L53.88,40H32v32H16v408H0v16h224v-16h-16V72z M112,25.208L137.883,40H86.117L112,25.208z
				 M32,88h96V72H48V56h128v16h-32v16h48v392h-32v-72h16v-16H48v16h16v72H32V88z M104,408v72H80v-72H104z M120,408h24v72h-24V408z"
				/>
			<path d="M176,104H48v64h128V104z M160,152H64v-32h96V152z"/>
			<path d="M176,184H48v64h128V184z M160,232H64v-32h96V232z"/>
			<path d="M176,264H48v64h128V264z M160,312H64v-32h96V312z"/>
			<rect x="48" y="360" width="128" height="16"/>
			<path d="M368,0v496h128V0H368z M384,480V16h96v16h-32v16h32v16h-32v16h32v16h-48v16h48v16h-32v16h32v16h-32v16h32v16h-48v16h48
				v16h-32v16h32v16h-32v16h32v16h-48v16h48v16h-32v16h32v16h-32v16h32v16h-48v16h48v16h-32v16h32v16h-32v16h32v16H384z"/>
			<rect x="240" width="112" height="16"/>
			<rect x="240" y="480" width="112" height="16"/>
			<polygon points="253.656,402.344 242.344,413.656 296,467.312 349.656,413.656 338.344,402.344 304,436.688 304,59.312 
				338.344,93.656 349.656,82.344 296,28.688 242.344,82.344 253.656,93.656 288,59.312 288,436.688 			"/>
		</g>
	</g>
</g>
<g>
</g>
<g>
</g>
<g>
</g>
<g>
</g>
<g>
</g>
<g>
</g>
<g>
</g>
<g>
</g>
<g>
</g>
<g>
</g>
<g>
</g>
<g>
</g>
<g>
</g>
<g>
</g>
<g>
</g>
</svg>
