<?xml version="1.0" encoding="iso-8859-1"?>
<!-- Generator: Adobe Illustrator 19.0.0, SVG Export Plug-In . SVG Version: 6.00 Build 0)  -->
<svg version="1.1" id="Capa_1" xmlns="http://www.w3.org/2000/svg" xmlns:xlink="http://www.w3.org/1999/xlink" x="0px" y="0px"
	 viewBox="0 0 496 496" style="enable-background:new 0 0 496 496;" xml:space="preserve">
<g>
	<g>
		<g>
			<path d="M366.452,232c11.024,0,20-8.976,20-20s-8.976-20-20-20s-20,8.976-20,20S355.428,232,366.452,232z M366.452,208
				c2.208,0,4,1.792,4,4s-1.792,4-4,4s-4-1.792-4-4S364.244,208,366.452,208z"/>
			<path d="M278.452,232c11.024,0,20-8.976,20-20s-8.976-20-20-20s-20,8.976-20,20S267.428,232,278.452,232z M278.452,208
				c2.208,0,4,1.792,4,4s-1.792,4-4,4s-4-1.792-4-4S276.244,208,278.452,208z"/>
			<path d="M282.452,264c0,22.056,17.944,40,40,40c22.056,0,40-17.944,40-40h-16c0,13.232-10.768,24-24,24s-24-10.768-24-24H282.452
				z"/>
			<path d="M210.452,448h283.096l-26.368-79.112c-3.288-9.864-9.144-18.384-16.728-24.872v-170.24c4.76-2.776,8-7.88,8-13.776v-16
				c0-6.016-3.368-11.2-8.288-13.928c-2.864-57.56-46.792-105.248-103.712-112.88V16c0-8.824-7.176-16-16-16h-16
				c-8.824,0-16,7.176-16,16v1.192c-56.92,7.632-100.848,55.32-103.712,112.88c-4.92,2.728-8.288,7.912-8.288,13.928v16
				c0,5.896,3.24,11,8,13.776V208h-16v-32h-56v-32h-16v32h-56v32h-32v272h-16v16h224v-16h-16V448z M106.452,480h-24v-80h24V480z
				 M146.452,480h-24v-80h24V480z M194.452,480h-32v-80h16v-16h-128v16h16v80h-32V224h96v-16h-64v-16h96v16h-16v16h48V480z
				 M210.452,431.992v-79.76c4.248-2.52,8.952-4.28,13.824-5.096l36.32-6.056l-11.536,28.84l16.232,16.232l-8,24l21.84,21.84
				H210.452z M273.868,322.656l-52.216,8.704c-3.84,0.64-7.584,1.744-11.2,3.16V216v-8v-32h16v64
				C226.452,275.192,245.548,305.944,273.868,322.656z M402.452,240c0,44.112-35.888,80-80,80s-80-35.888-80-80v-64h160V240z
				 M418.452,240v-64h16v158.576c-3.584-1.408-7.296-2.568-11.192-3.216l-52.224-8.704C399.356,305.944,418.452,275.192,418.452,240
				z M301.764,432l-26.16-26.16l8-24l-15.768-15.768l11.232-28.064l4.464-0.744c0.512,2.152,1.208,4.232,2.056,6.24L304.556,432
				H301.764z M323.98,432h-3.064l-14.456-67.488c4.92,2.168,10.288,3.488,15.992,3.488c5.704,0,11.072-1.32,15.992-3.488L323.98,432
				z M322.452,352c-9.56,0-17.768-5.664-21.624-13.776l-1.08-5.056c7.288,1.784,14.872,2.832,22.704,2.832
				c7.832,0,15.416-1.048,22.712-2.824l-1.088,5.056C340.22,346.336,332.012,352,322.452,352z M340.348,432l18.968-88.504
				c0.848-2,1.544-4.08,2.056-6.24l4.464,0.744l11.232,28.072L361.3,381.84l8,24L343.14,432H340.348z M451.996,373.952L471.356,432
				h-38.344l-6.712-33.568l-15.688,3.144l6.08,30.424h-50.928l21.84-21.84l-8-24l16.232-16.232l-11.536-28.84l36.32,6.056
				C435.276,349.584,447.292,359.856,451.996,373.952z M314.452,16h16v80h-16l-0.008-80H314.452z M298.452,33.288V96
				c0,8.824,7.176,16,16,16h16c8.824,0,16-7.176,16-16V33.288c9.52,1.48,18.576,4.272,27.048,8.152L355.916,128h-66.92
				l-17.592-86.56C279.876,37.56,288.932,34.76,298.452,33.288z M256.748,49.68L272.66,128h-61.824
				C213.348,95.56,230.94,67.04,256.748,49.68z M202.452,144h200v-16h-30.208l15.912-78.32c25.808,17.36,43.4,45.88,45.904,78.32
				h-15.608v16h24v16h-240V144z"/>
			<path d="M50.452,304h128v-64h-128V304z M66.452,256h96v32h-96V256z"/>
			<rect x="50.452" y="320" width="128" height="16"/>
			<rect x="50.452" y="352" width="128" height="16"/>
		</g>
	</g>
</g>
<g>
</g>
<g>
</g>
<g>
</g>
<g>
</g>
<g>
</g>
<g>
</g>
<g>
</g>
<g>
</g>
<g>
</g>
<g>
</g>
<g>
</g>
<g>
</g>
<g>
</g>
<g>
</g>
<g>
</g>
</svg>
