<?xml version="1.0" encoding="iso-8859-1"?>
<!-- Generator: Adobe Illustrator 19.0.0, SVG Export Plug-In . SVG Version: 6.00 Build 0)  -->
<svg version="1.1" id="Capa_1" xmlns="http://www.w3.org/2000/svg" xmlns:xlink="http://www.w3.org/1999/xlink" x="0px" y="0px"
	 viewBox="0 0 496 496" style="enable-background:new 0 0 496 496;" xml:space="preserve">
<g>
	<g>
		<g>
			<path d="M479.112,400H480v-72c0-13.232-10.768-24-24-24H352v-24c0-1.736-0.208-3.424-0.56-5.056l53.488-122.248
				c2.488-5.664,2.32-12.088-0.456-17.632l-1.792-3.584c-3.528-7.08-10.656-11.48-18.568-11.48c-5.088,0-9.784,2.04-13.512,5.28
				L121.496,27.144l-3.136-6.896C112.768,7.952,100.416,0,86.904,0h-4.36C64.768,0,50.248,13.56,48.376,30.856l-0.288-0.04l-24,160
				l-0.056,11.4C19.256,204.984,16,210.096,16,216v32c0,8.824,7.176,16,16,16v40c0,4.416-3.584,8-8,8s-8-3.584-8-8v-8H0v8
				c0,13.232,10.768,24,24,24s24-10.768,24-24v-40c8.824,0,16-7.176,16-16v-32c0-5.184-2.512-9.744-6.344-12.672l23.856-83.496
				l111.136,259.312l0.176-0.08l-0.672,3.36L192,400h0.888C182.48,410.176,176,424.336,176,440c0,30.872,25.128,56,56,56h208
				c30.872,0,56-25.128,56-56C496,424.336,489.52,410.176,479.112,400z M352,352v-32h104c4.416,0,8,3.584,8,8v8h-96v48h-16v-16h-16
				v16H232c-8.592,0-16.712,2.008-24,5.48v-4.688l21.272-106.368c0.744-3.72,4.04-6.424,7.848-6.424H328c4.416,0,8,3.584,8,8v72H352
				z M464,352v37.48c-4.976-2.376-10.352-4.024-16-4.84V352H464z M432,352v32h-16v-32H432z M400,352v32h-16v-32H400z
				 M156.96,105.184l128.616,52.4l0.08,0.08l0.032-0.032l56.664,23.08L306.92,256h-69.8c-3.736,0-7.272,0.944-10.464,2.504
				L156.96,105.184z M200.608,239.872l-18.928-8.952l5.568-20.44L200.608,239.872z M170.392,173.392l-12.888-5.856l3.84-14.056
				L170.392,173.392z M379.776,138.744c1.576-3.312,6.968-3.384,8.608-0.096l1.792,3.584c0.632,1.272,0.672,2.744,0.104,4.048
				l-49.616,113.416C336.968,257.392,332.656,256,328,256h-3.392L379.776,138.744z M361.952,139.056l-12.776,27.152l-51.208-20.864
				l22.592-22.592L361.952,139.056z M304.328,116.36l-22.44,22.44l-12.344-5.032l22.32-22.32L304.328,116.36z M275.632,105.056
				l-22.16,22.16l-106.144-43.24L131.016,48.08L275.632,105.056z M130.44,85.48l11.056,24.32l-15.568-7.784L130.44,85.48z M32,248
				v-32h16l0.008,32H32z M41.96,200H40v-7.4L58.848,66.952l12.68,29.576L41.96,200z M81.192,78.448l-15.688-36.6
				C64.496,39.536,64,37.08,64,34.552C64,24.32,72.32,16,82.544,16h4.36c7.256,0,13.88,4.272,16.888,10.872l5.48,12.048l-0.2,0.52
				l0.536,0.208l9.112,20.04L81.192,78.448z M102.312,127.76l-10.72-25.016l15.44,7.72L102.312,127.76z M97.888,88l17.68-8.84
				l-4.24,15.56L97.888,88z M132.536,198.28l-13.048-30.448l19,8.632L132.536,198.28z M113.512,147.536l8.12-29.776l28.928,14.464
				l-7.808,28.6L113.512,147.536z M157.872,257.4l-10.768-25.136l15.608,7.384L157.872,257.4z M144.96,213.552l8.288-30.376
				l22.128,10.056l-8.384,30.744L144.96,213.552z M168.008,281.04l9.392-34.448l33.456,15.824l3.96,8.72
				c-0.528,1.328-0.952,2.712-1.24,4.144l-15.288,76.432L168.008,281.04z M440,480H232c-22.056,0-40-17.944-40-40
				c0-22.056,17.944-40,40-40h208c22.056,0,40,17.944,40,40C480,462.056,462.056,480,440,480z"/>
			<path d="M432,408c-9.608,0-18.128,4.336-24,11.056c-5.872-6.72-14.392-11.056-24-11.056c-9.608,0-18.128,4.336-24,11.056
				c-5.872-6.72-14.392-11.056-24-11.056c-9.608,0-18.128,4.336-24,11.056c-5.872-6.72-14.392-11.056-24-11.056
				c-9.608,0-18.128,4.336-24,11.056c-5.872-6.72-14.392-11.056-24-11.056c-17.648,0-32,14.352-32,32s14.352,32,32,32
				c9.608,0,18.128-4.336,24-11.056c5.872,6.72,14.392,11.056,24,11.056c9.608,0,18.128-4.336,24-11.056
				c5.872,6.72,14.392,11.056,24,11.056c9.608,0,18.128-4.336,24-11.056c5.872,6.72,14.392,11.056,24,11.056
				c9.608,0,18.128-4.336,24-11.056c5.872,6.72,14.392,11.056,24,11.056c17.648,0,32-14.352,32-32S449.648,408,432,408z M240,456
				c-8.824,0-16-7.176-16-16c0-8.824,7.176-16,16-16c8.824,0,16,7.176,16,16C256,448.824,248.824,456,240,456z M288,456
				c-8.824,0-16-7.176-16-16c0-8.824,7.176-16,16-16c8.824,0,16,7.176,16,16C304,448.824,296.824,456,288,456z M336,456
				c-8.824,0-16-7.176-16-16c0-8.824,7.176-16,16-16c8.824,0,16,7.176,16,16C352,448.824,344.824,456,336,456z M384,456
				c-8.824,0-16-7.176-16-16c0-8.824,7.176-16,16-16c8.824,0,16,7.176,16,16C400,448.824,392.824,456,384,456z M432,456
				c-8.824,0-16-7.176-16-16c0-8.824,7.176-16,16-16c8.824,0,16,7.176,16,16C448,448.824,440.824,456,432,456z"/>
			<path d="M232.16,334.432L232,352h88v-64h-78.552L232.16,334.432z M254.56,304H304v32h-55.84L254.56,304z"/>
		</g>
	</g>
</g>
<g>
</g>
<g>
</g>
<g>
</g>
<g>
</g>
<g>
</g>
<g>
</g>
<g>
</g>
<g>
</g>
<g>
</g>
<g>
</g>
<g>
</g>
<g>
</g>
<g>
</g>
<g>
</g>
<g>
</g>
</svg>
